<svg width="580" height="165" viewBox="0 0 580 165" fill="none" xmlns="http://www.w3.org/2000/svg">
<g clip-path="url(#clip0_21_17)">
<path fill-rule="evenodd" clip-rule="evenodd" d="M170.602 122.012V47.2596H179.777L223.391 107.417V47.2596H232.113V122.012H222.937L179.324 61.2608V122.012H170.602ZM303.141 119.046C297.363 121.3 291.133 122.487 284.562 122.487C258.734 122.487 245.82 109.553 245.82 83.5679C245.82 59.0064 258.281 46.6663 283.203 46.6663C290.34 46.6663 297.023 47.7342 303.141 49.7514V58.0572C297.023 55.5654 290.68 54.3789 284.223 54.3789C264.738 54.3789 254.996 64.1085 254.996 83.3306C254.996 104.095 264.625 114.418 283.77 114.418C286.828 114.418 290.227 113.943 293.965 113.113V88.0768H303.141V119.046ZM317.867 93.1789V47.2596H327.043V93.1789C327.043 107.536 333.84 114.774 347.547 114.774C361.141 114.774 368.051 107.536 368.051 93.1789V47.2596H377.227V93.1789C377.227 112.757 367.371 122.605 347.547 122.605C327.723 122.605 317.867 112.757 317.867 93.1789ZM402.828 47.2596V114.181H440.211V122.012H393.652V47.2596H402.828ZM453.465 122.012H443.836L479.293 37.4113L514.75 122.012H504.555L495.379 98.5184H471.816L474.309 90.6872H492.32L478.953 56.8706L453.465 122.012ZM524.605 122.012V47.2596H555.078C568.672 47.2596 575.469 53.1923 575.469 65.1764C575.469 74.9061 568.785 82.144 555.531 86.7716L580 122.012H567.879L545.223 88.4327V82.144C558.816 79.8896 565.727 74.4315 565.727 65.6511C565.727 58.7691 561.988 55.3281 554.398 55.3281H534.008V122.012H524.605Z" fill="white"/>
<path fill-rule="evenodd" clip-rule="evenodd" d="M0 27.3257L73.0664 0.0351257L148.059 26.851L135.938 128.063L73.0664 164.49L11.2148 128.538L0 27.3257Z" fill="white"/>
<path fill-rule="evenodd" clip-rule="evenodd" d="M148.059 26.851L73.0664 0.0351257V164.49L135.938 128.063L148.059 26.851Z" fill="white"/>
<path fill-rule="evenodd" clip-rule="evenodd" d="M73.1797 19.2571L27.6406 125.334L44.6328 124.978L53.8086 101.01H94.4766L104.445 125.216L120.645 125.572L73.1797 19.2571ZM73.293 53.311L88.6992 87.0089H59.8125L73.293 53.311Z" fill="black"/>
</g>
<defs>
<clipPath id="clip0_21_17">
<rect width="580" height="165" fill="white"/>
</clipPath>
</defs>
</svg>
