<svg width="350" height="350" viewBox="0 0 350 350" fill="none" xmlns="http://www.w3.org/2000/svg">
<g clip-path="url(#clip0_21_2)">
<path d="M38.2139 280.09C38.2139 266.214 33.7885 259.29 24.9207 259.035C21.3197 258.794 18.0048 259.531 14.6731 260.525C11.8966 261.262 10.2476 262.255 9.40625 263.008V295.698C14.9423 298.918 19.9231 300.409 24.3654 300.153C33.5024 299.4 38.2139 292.718 38.2139 280.09ZM49.0168 280.587C49.0168 287.525 47.351 293.214 43.4808 297.925C39.3245 303.133 33.7885 305.857 26.3173 305.857C20.7812 306.098 15.2452 304.367 9.42308 301.146V330.871L0 327.891V261.759C1.66587 260.028 3.60096 258.538 5.82212 257.304C11.3582 254.339 18.2909 252.849 26.0312 252.849C33.2332 252.849 39.0385 255.573 42.9255 260.78C47.0649 266.47 49.0168 272.655 49.0168 280.587ZM106.329 300.153C106.329 309.559 105.219 316.001 103.284 319.478C101.062 322.939 97.1923 325.919 91.3702 328.147C86.3894 329.877 81.4087 330.871 75.8558 330.871L74.1899 325.663C80.012 324.926 83.8822 324.173 86.1034 323.677C90.5288 322.187 93.8606 320.215 95.5096 317.235C96.8894 315.008 97.4447 310.553 97.4447 304.111V301.883C91.0841 304.608 84.1514 305.842 77.2356 305.842C72.524 305.842 68.3678 304.608 65.0529 301.883C61.1827 299.159 59.2308 295.442 59.2308 290.987V256.07L68.637 253.105V288.278C68.637 291.995 70.0168 294.96 72.7933 296.947C75.5697 298.934 78.8846 299.912 83.3101 299.912C87.7356 299.912 92.1779 298.422 97.1587 295.457V254.324H106.565L106.329 300.153ZM142.877 305.601H139.832C134.565 305.601 130.425 304.367 127.363 302.139C124.317 299.912 122.937 296.691 122.937 292.733V259.546H116.577V254.324H122.937V240.206L132.344 237.241V254.324H142.861V259.531H132.344V292.221C132.344 295.442 133.168 297.669 135.12 298.903C136.786 299.897 139.276 300.634 142.877 300.89V305.601ZM199.921 304.848H190.514V272.399C190.514 269.179 189.69 266.214 188.024 263.986C186.089 261.262 183.313 260.028 179.712 260.028C175.286 260.028 170.019 262.015 163.659 266.214V305.104H154.252V227.579L163.659 224.855V260.028C169.75 256.07 176.127 254.083 183.313 254.083C188.293 254.083 192.18 255.573 195.495 258.538C198.541 261.503 200.207 265.22 200.207 269.69L199.921 304.848ZM249.762 278.6C249.762 273.393 248.651 268.938 246.447 265.476C243.671 261.262 239.8 259.035 233.978 258.794C223.731 259.29 218.464 265.973 218.464 278.6C218.464 284.545 219.575 289.256 221.779 293.214C224.555 298.166 228.695 300.649 234.248 300.649C244.495 300.393 249.762 293.214 249.762 278.6ZM260.01 278.6C260.01 286.035 257.788 292.477 253.649 297.428C248.938 302.877 242.291 305.842 234.264 305.842C225.952 305.842 219.591 303.118 214.88 297.428C210.724 292.477 208.519 286.276 208.519 278.6C208.519 271.421 210.74 265.476 215.435 260.765C220.416 255.558 226.507 253.09 234.264 253.09C242.022 253.09 248.382 255.573 253.363 260.765C257.788 265.717 260.01 271.662 260.01 278.6ZM314.007 304.848H304.601V270.669C304.601 266.951 303.221 263.986 300.731 262C298.24 260.013 294.909 258.779 290.483 259.035C286.058 259.035 281.615 260.525 277.745 262.993V305.345H268.339V262C273.606 258.538 278.587 256.055 283.298 255.061C287.724 254.068 291.325 253.571 294.656 253.571C296.877 253.571 299.082 253.812 301.017 254.068C304.618 254.805 307.663 256.295 309.885 258.282C312.375 260.51 313.755 263.49 313.755 266.695L314.007 304.848Z" fill="#9EC6F3"/>
<path d="M152.856 0.0450474C143.988 0.0450474 135.406 0.782523 127.935 2.03172C105.791 5.49334 101.904 12.6875 101.904 26.3082V44.1431H153.966V50.0881H82.5192C67.5601 50.0881 54.2836 58.2605 50.1274 73.612C45.4158 91.4469 45.1466 102.343 50.1274 120.916C53.7283 134.792 62.5961 144.44 77.8245 144.44H95.8293V123.143C95.8293 107.792 110.788 94.171 128.221 94.171H179.998C194.401 94.171 206.029 83.5153 206.029 70.3912V26.0524C206.029 13.425 194.115 4.00334 179.998 1.77586C170.844 0.541715 161.707 -0.195761 152.856 0.0450474ZM124.603 14.1624C129.87 14.1624 134.296 18.1207 134.296 23.0724C134.296 28.024 129.87 31.9823 124.603 31.9823C119.337 31.9823 114.911 28.024 114.911 23.0724C114.911 18.1207 119.067 14.1624 124.603 14.1624Z" fill="#9EC6F3"/>
<path d="M212.389 49.5764V70.1355C212.389 86.2395 197.161 99.6044 179.712 99.6044H127.935C113.817 99.6044 101.904 110.501 101.904 123.384V167.723C101.904 180.35 114.087 187.785 127.935 191.503C144.274 195.958 160.058 196.71 179.998 191.503C193.005 188.041 206.029 181.344 206.029 167.723V149.888H153.949V143.943H232.043C247.002 143.943 252.808 134.537 258.074 120.419C263.611 105.805 263.341 91.9437 258.074 73.1155C254.474 59.7355 247.272 49.5915 232.043 49.5915L212.389 49.5764ZM183.026 161.778C188.293 161.778 192.719 165.736 192.719 170.688C192.719 175.64 188.293 179.598 183.026 179.598C177.76 179.598 173.334 175.64 173.334 170.688C173.334 165.736 177.776 161.778 183.026 161.778Z" fill="#9EC6F3"/>
<path d="M331.995 246.904H333.661V237.738H337.531V236.504H328.125V237.738H331.995V246.904ZM339.197 246.904H340.577V238.491L343.623 246.904H345.288L348.334 238.491V246.904H350V236.504H348.065L344.464 245.414L341.418 236.504H339.197V246.904Z" fill="#656565"/>
</g>
<defs>
<clipPath id="clip0_21_2">
<rect width="350" height="350" fill="#9EC6F3"/>
</clipPath>
</defs>
</svg>
